<svg width="18" height="18" viewBox="0 0 18 18" fill="none" xmlns="http://www.w3.org/2000/svg">
<path fill-rule="evenodd" clip-rule="evenodd" d="M8.99935 6.78596C7.77434 6.78596 6.78535 7.77495 6.78535 8.99996C6.78535 9.37573 6.87811 9.72771 7.04318 10.0369L10.0363 7.04379C9.7271 6.87872 9.37512 6.78596 8.99935 6.78596ZM5.48535 8.99996C5.48535 7.05698 7.05637 5.48596 8.99935 5.48596C9.97145 5.48596 10.8466 5.88001 11.483 6.51634C11.7368 6.77018 11.7368 7.18174 11.483 7.43558L7.43497 11.4836C7.18113 11.7374 6.76957 11.7374 6.51573 11.4836C5.8794 10.8472 5.48535 9.97206 5.48535 8.99996Z" fill="black"/>
<path fill-rule="evenodd" clip-rule="evenodd" d="M1.16331 6.57871C3.08277 3.56146 5.8999 1.73401 8.99948 1.73401C10.8112 1.73401 12.5462 2.36514 14.0469 3.49708C14.3335 3.71325 14.3906 4.12083 14.1744 4.40743C13.9582 4.69403 13.5507 4.75112 13.2641 4.53494C11.9647 3.55488 10.4998 3.03401 8.99948 3.03401C6.45121 3.03401 4.00446 4.53438 2.25993 7.27688L2.25938 7.27773C1.98208 7.71218 1.82148 8.33835 1.82148 9.00401C1.82148 9.66966 1.98208 10.2958 2.25938 10.7303L2.25968 10.7308C2.86028 11.6735 3.55538 12.48 4.30331 13.1232C4.57549 13.3573 4.60638 13.7677 4.3723 14.0398C4.13823 14.312 3.72784 14.3429 3.45566 14.1088C2.60359 13.376 1.82668 12.4705 1.16329 11.4293C0.720802 10.7358 0.521484 9.85016 0.521484 9.00401C0.521484 8.15784 0.72081 7.2722 1.16331 6.57871Z" fill="black"/>
<path fill-rule="evenodd" clip-rule="evenodd" d="M15.0321 5.23741C15.3119 5.01241 15.721 5.05678 15.946 5.3365C16.254 5.71947 16.5569 6.13127 16.8363 6.57161C17.2784 7.26495 17.4775 8.15013 17.4775 8.99589C17.4775 9.84207 17.2782 10.7277 16.8357 11.4212C16.8356 11.4213 16.8355 11.4215 16.8354 11.4216L16.2875 11.0719L16.836 11.4208C16.8359 11.4209 16.8358 11.421 16.8357 11.4212C14.9162 14.4384 12.0991 16.2659 8.99952 16.2659C7.92319 16.2659 6.8697 16.0383 5.88328 15.623C5.55243 15.4837 5.39715 15.1025 5.53646 14.7717C5.67576 14.4408 6.0569 14.2855 6.38776 14.4248C7.22534 14.7775 8.10785 14.9659 8.99952 14.9659C11.5478 14.9659 13.9945 13.4655 15.7391 10.723L15.7396 10.7222C16.0169 10.2877 16.1775 9.66155 16.1775 8.99589C16.1775 8.33024 16.0169 7.70407 15.7396 7.26962L15.7387 7.26818C15.4902 6.87652 15.217 6.50432 14.933 6.15129C14.708 5.87156 14.7524 5.4624 15.0321 5.23741Z" fill="black"/>
<path fill-rule="evenodd" clip-rule="evenodd" d="M11.9254 8.92068C12.2784 8.98578 12.5118 9.32474 12.4467 9.67778C12.1898 11.0708 11.0624 12.1983 9.66935 12.4551C9.31632 12.5202 8.97736 12.2868 8.91226 11.9338C8.84716 11.5807 9.08058 11.2418 9.43361 11.1767C10.2965 11.0176 11.0091 10.305 11.1683 9.44203C11.2334 9.089 11.5723 8.85558 11.9254 8.92068Z" fill="black"/>
<path fill-rule="evenodd" clip-rule="evenodd" d="M7.43523 10.5644C7.68907 10.8182 7.68907 11.2298 7.43523 11.4836L1.45923 17.4596C1.20539 17.7135 0.793831 17.7135 0.53999 17.4596C0.286149 17.2058 0.286149 16.7942 0.53999 16.5404L6.51599 10.5644C6.76983 10.3106 7.18139 10.3106 7.43523 10.5644Z" fill="black"/>
<path fill-rule="evenodd" clip-rule="evenodd" d="M17.4587 0.540356C17.7125 0.794197 17.7125 1.20575 17.4587 1.45959L11.4827 7.4356C11.2288 7.68944 10.8173 7.68944 10.5634 7.4356C10.3096 7.18175 10.3096 6.7702 10.5634 6.51636L16.5394 0.540356C16.7933 0.286515 17.2048 0.286515 17.4587 0.540356Z" fill="black"/>
</svg>
