<?xml version="1.0" encoding="utf-8"?>
<!-- Generator: Adobe Illustrator 27.5.0, SVG Export Plug-In . SVG Version: 6.00 Build 0)  -->
<svg version="1.1" xmlns="http://www.w3.org/2000/svg" xmlns:xlink="http://www.w3.org/1999/xlink" x="0px" y="0px"
	 viewBox="0 0 500 500" style="enable-background:new 0 0 500 500;" xml:space="preserve">
<g id="BACKGROUND">
	<rect style="fill:#FFFFFF;" width="500" height="500"/>
</g>
<g id="OBJECTS">
	<g>
		<g>
			<path style="fill:#B4D1FD;" d="M88.56,97.209c-3.75-2.482-8.6-3.228-12.923-1.989c-4.323,1.239-7.697,4.943-9.562,9.035h109.046
				c0.216-3.614-1.678-7.278-4.751-9.191c-3.073-1.913-6.932-1.925-10.079-0.135c0.1-4.368-2.166-8.718-5.801-11.141
				c-3.635-2.423-9.067-3.461-13.06-1.688c-1.646-6.586-6.888-12.153-13.364-14.191c-6.476-2.038-13.961-0.477-19.083,3.979
				c-4.345,3.781-5.896,10.867-4.29,16.398c-2.494-2.894-7.479-3.328-10.773-1.392C90.628,88.828,87.245,93.622,88.56,97.209z"/>
			<path style="fill:#B4D1FD;" d="M402.109,124.26c-2.935-1.942-6.732-2.527-10.115-1.557c-3.383,0.97-6.024,3.869-7.485,7.072
				h85.354c0.169-2.829-1.313-5.697-3.719-7.194c-2.406-1.497-5.426-1.507-7.889-0.106c0.078-3.419-1.695-6.824-4.54-8.72
				c-2.845-1.897-7.097-2.709-10.223-1.321c-1.288-5.155-5.391-9.513-10.46-11.108c-5.069-1.595-10.928-0.373-14.936,3.115
				c-3.401,2.959-4.615,8.506-3.358,12.835c-1.952-2.265-5.854-2.605-8.432-1.09C403.728,117.7,401.08,121.453,402.109,124.26z"/>
		</g>
		<g>
			<polygon style="fill:#E5ECFF;" points="467.86,240.12 467.86,422.08 32.14,422.08 32.14,197 70.68,197 70.68,233 81.01,233 
				81.01,139.15 257.86,139.15 257.86,100.33 290.53,100.33 290.53,230.7 342.01,230.7 342.01,144.36 379.13,123 379.13,164.57 
				447.2,164.57 447.2,240.12 			"/>
			<polygon style="fill:#B4D1FD;" points="290.53,230.7 290.53,100.33 275,100.33 275,422.08 291,422.08 291,230.7 			"/>
			<rect x="326.333" y="230.7" style="fill:#B4D1FD;" width="12.667" height="191.38"/>
			<polygon style="fill:#B4D1FD;" points="371.667,127.295 371.667,422.08 379,422.08 379,123.075 			"/>
			<rect x="457.53" y="240.12" style="fill:#B4D1FD;" width="10.33" height="181.96"/>
			<rect x="426.526" y="164.57" style="fill:#B4D1FD;" width="20.674" height="257.51"/>
			<rect x="175.138" y="139.15" style="fill:#B4D1FD;" width="82.722" height="279.275"/>
			<rect x="50" y="197" style="fill:#B4D1FD;" width="20.68" height="225.159"/>
		</g>
		<g>
			<g>
				<path style="fill:#1933AE;" d="M248.329,422.083H117.992c-8.977,0-16.254-7.277-16.254-16.254V131.459
					c0-8.977,7.277-16.254,16.254-16.254h130.337c8.977,0,16.254,7.277,16.254,16.254v274.369
					C264.584,414.806,257.306,422.083,248.329,422.083z"/>
				<path style="fill:#7F96FC;" d="M117.992,416.083c-5.654,0-10.254-4.601-10.254-10.255V131.46c0-5.654,4.6-10.254,10.254-10.254
					h130.337c5.654,0,10.254,4.6,10.254,10.254v274.369c0,5.654-4.6,10.255-10.254,10.255H117.992z"/>
				
					<rect x="44.359" y="195.909" transform="matrix(-1.836970e-16 1 -1 -1.836970e-16 448.8302 82.5084)" style="fill:#324BCC;" width="277.603" height="139.521"/>
				<circle style="fill:#1933AE;" cx="183.161" cy="410.428" r="3.254"/>
			</g>
			<g>
				<g>
					<g>
						<path style="fill:#7F96FC;" d="M131.547,147.505h-5.412c-0.552,0-1-0.448-1-1c0-0.552,0.448-1,1-1h5.412c0.552,0,1,0.448,1,1
							C132.547,147.058,132.099,147.505,131.547,147.505z"/>
					</g>
					<g>
						<path style="fill:#7F96FC;" d="M131.547,151.757h-5.412c-0.552,0-1-0.448-1-1c0-0.552,0.448-1,1-1h5.412c0.552,0,1,0.448,1,1
							C132.547,151.31,132.099,151.757,131.547,151.757z"/>
					</g>
					<g>
						<path style="fill:#7F96FC;" d="M131.547,156.009h-5.412c-0.552,0-1-0.448-1-1c0-0.552,0.448-1,1-1h5.412c0.552,0,1,0.448,1,1
							C132.547,155.561,132.099,156.009,131.547,156.009z"/>
					</g>
				</g>
				<g>
					<rect x="228.59" y="149.393" style="fill:#7F96FC;" width="11.596" height="6.196"/>
					<rect x="228.59" y="144.86" style="fill:#7F96FC;" width="11.596" height="3.578"/>
					<g>
						<g>
							<path style="fill:#7F96FC;" d="M230.781,146.407c-0.276,0-0.5-0.224-0.5-0.5v-1.55c0-0.276,0.224-0.5,0.5-0.5
								c0.276,0,0.5,0.224,0.5,0.5v1.55C231.281,146.183,231.058,146.407,230.781,146.407z"/>
						</g>
						<g>
							<path style="fill:#7F96FC;" d="M238.273,146.407c-0.276,0-0.5-0.224-0.5-0.5v-1.55c0-0.276,0.224-0.5,0.5-0.5
								c0.276,0,0.5,0.224,0.5,0.5v1.55C238.773,146.183,238.549,146.407,238.273,146.407z"/>
						</g>
					</g>
				</g>
			</g>
			<g>
				<rect x="120.606" y="159.672" style="fill:#7F96FC;" width="125.108" height="16.884"/>
				<rect x="120.606" y="176.556" style="fill:#1933AE;" width="125.108" height="61.694"/>
			</g>
			<g>
				<g>
					<path style="fill:#7F96FC;" d="M187.881,188.352c0,3.773-3.059,6.832-6.832,6.832c-3.773,0-6.832-3.059-6.832-6.832
						c0-3.773,3.059-6.832,6.832-6.832C184.822,181.52,187.881,184.579,187.881,188.352z"/>
					<g>
						<path style="fill:#1933AE;" d="M184.587,189.776h-3.853c-0.276,0-0.5-0.224-0.5-0.5v-4.576c0-0.276,0.224-0.5,0.5-0.5
							c0.276,0,0.5,0.224,0.5,0.5v4.076h3.353c0.276,0,0.5,0.224,0.5,0.5C185.087,189.553,184.864,189.776,184.587,189.776z"/>
					</g>
				</g>
				<g>
					<rect x="193.796" y="185.905" style="fill:#7F96FC;" width="17.181" height="4.895"/>
					<rect x="215.046" y="185.905" style="fill:#7F96FC;" width="17.181" height="4.895"/>
				</g>
				<g>
					<g>
						<rect x="174.217" y="199.268" style="fill:#7F96FC;" width="58.01" height="4.895"/>
					</g>
					<g>
						<rect x="174.217" y="211.437" style="fill:#7F96FC;" width="58.01" height="4.895"/>
					</g>
				</g>
				<g>
					<rect x="134.095" y="181.52" style="fill:#7F96FC;" width="34.019" height="34.019"/>
					<g>
						<circle style="fill:#1933AE;" cx="151.104" cy="191.311" r="4.826"/>
						<path style="fill:#1933AE;" d="M159.338,210.574H142.87v-6.203c0-4.548,3.686-8.234,8.234-8.234l0,0
							c4.548,0,8.234,3.687,8.234,8.234V210.574z"/>
					</g>
				</g>
				<g>
					<path style="fill:#7F96FC;" d="M194.268,233.287h-6.653c-2.781,0-5.036-2.255-5.036-5.036l0,0c0-2.781,2.255-5.036,5.036-5.036
						h6.653c2.781,0,5.036,2.255,5.036,5.036l0,0C199.304,231.032,197.049,233.287,194.268,233.287z"/>
					<path style="fill:#7F96FC;" d="M218.828,233.287h-6.653c-2.781,0-5.036-2.255-5.036-5.036l0,0c0-2.781,2.255-5.036,5.036-5.036
						h6.653c2.781,0,5.036,2.255,5.036,5.036l0,0C223.864,231.032,221.61,233.287,218.828,233.287z"/>
				</g>
				<g>
					<rect x="134.095" y="225.803" style="fill:#7F96FC;" width="34.019" height="4.895"/>
				</g>
			</g>
			<g>
				<g>
					<rect x="120.606" y="279.325" style="fill:#1933AE;" width="125.108" height="27.454"/>
					<g>
						<rect x="120.606" y="279.325" style="fill:#324BCC;" width="27.454" height="27.454"/>
						<g>
							<circle style="fill:#7F96FC;" cx="134.334" cy="287.227" r="3.895"/>
							<path style="fill:#7F96FC;" d="M140.979,302.772h-13.29v-5.006c0-3.67,2.975-6.645,6.645-6.645l0,0
								c3.67,0,6.645,2.975,6.645,6.645V302.772z"/>
						</g>
					</g>
					<g>
						<g>
							<circle style="fill:#7F96FC;" cx="158.45" cy="296.947" r="6.832"/>
							<g>
								<path style="fill:#324BCC;" d="M161.989,298.371h-3.853c-0.276,0-0.5-0.224-0.5-0.5v-4.576c0-0.276,0.224-0.5,0.5-0.5
									c0.276,0,0.5,0.224,0.5,0.5v4.076h3.353c0.276,0,0.5,0.224,0.5,0.5S162.265,298.371,161.989,298.371z"/>
							</g>
						</g>
						<rect x="169.705" y="296.947" style="fill:#7F96FC;" width="18.569" height="4.761"/>
						<rect x="169.705" y="284.846" style="fill:#7F96FC;" width="44.999" height="4.761"/>
						<rect x="195.589" y="296.947" style="fill:#7F96FC;" width="18.569" height="4.761"/>
					</g>
					<g>
						<g>
							<path style="fill:#324BCC;" d="M236.294,289.8h-5.412c-0.552,0-1-0.447-1-1s0.448-1,1-1h5.412c0.552,0,1,0.447,1,1
								S236.846,289.8,236.294,289.8z"/>
						</g>
						<g>
							<path style="fill:#324BCC;" d="M236.294,294.052h-5.412c-0.552,0-1-0.447-1-1c0-0.553,0.448-1,1-1h5.412c0.552,0,1,0.447,1,1
								C237.294,293.604,236.846,294.052,236.294,294.052z"/>
						</g>
						<g>
							<path style="fill:#324BCC;" d="M236.294,298.304h-5.412c-0.552,0-1-0.447-1-1s0.448-1,1-1h5.412c0.552,0,1,0.447,1,1
								S236.846,298.304,236.294,298.304z"/>
						</g>
					</g>
				</g>
				<g>
					<rect x="120.606" y="318.871" style="fill:#1933AE;" width="125.108" height="27.454"/>
					<g>
						<rect x="120.606" y="318.871" style="fill:#324BCC;" width="27.454" height="27.454"/>
						<g>
							<circle style="fill:#7F96FC;" cx="134.334" cy="326.772" r="3.895"/>
							<path style="fill:#7F96FC;" d="M140.979,342.318h-13.29v-5.006c0-3.67,2.975-6.645,6.645-6.645l0,0
								c3.67,0,6.645,2.975,6.645,6.645V342.318z"/>
						</g>
					</g>
					<g>
						<g>
							<circle style="fill:#7F96FC;" cx="158.45" cy="336.492" r="6.832"/>
							<g>
								<path style="fill:#324BCC;" d="M161.989,337.917h-3.853c-0.276,0-0.5-0.224-0.5-0.5v-4.576c0-0.276,0.224-0.5,0.5-0.5
									c0.276,0,0.5,0.224,0.5,0.5v4.076h3.353c0.276,0,0.5,0.224,0.5,0.5S162.265,337.917,161.989,337.917z"/>
							</g>
						</g>
						<rect x="169.705" y="336.492" style="fill:#7F96FC;" width="18.569" height="4.761"/>
						<rect x="169.705" y="324.392" style="fill:#7F96FC;" width="44.999" height="4.761"/>
						<rect x="195.589" y="336.492" style="fill:#7F96FC;" width="18.569" height="4.761"/>
					</g>
					<g>
						<g>
							<path style="fill:#324BCC;" d="M236.294,329.346h-5.412c-0.552,0-1-0.447-1-1s0.448-1,1-1h5.412c0.552,0,1,0.447,1,1
								S236.846,329.346,236.294,329.346z"/>
						</g>
						<g>
							<path style="fill:#324BCC;" d="M236.294,333.598h-5.412c-0.552,0-1-0.447-1-1c0-0.553,0.448-1,1-1h5.412c0.552,0,1,0.447,1,1
								C237.294,333.15,236.846,333.598,236.294,333.598z"/>
						</g>
						<g>
							<path style="fill:#324BCC;" d="M236.294,337.85h-5.412c-0.552,0-1-0.447-1-1s0.448-1,1-1h5.412c0.552,0,1,0.447,1,1
								S236.846,337.85,236.294,337.85z"/>
						</g>
					</g>
				</g>
				<g>
					<rect x="120.606" y="358.417" style="fill:#1933AE;" width="125.108" height="27.454"/>
					<g>
						<rect x="120.606" y="358.417" style="fill:#324BCC;" width="27.454" height="27.454"/>
						<g>
							<circle style="fill:#7F96FC;" cx="134.334" cy="366.319" r="3.895"/>
							<path style="fill:#7F96FC;" d="M140.979,381.864h-13.29v-5.006c0-3.67,2.975-6.645,6.645-6.645l0,0
								c3.67,0,6.645,2.975,6.645,6.645V381.864z"/>
						</g>
					</g>
					<g>
						<g>
							<circle style="fill:#7F96FC;" cx="158.45" cy="376.039" r="6.832"/>
							<g>
								<path style="fill:#324BCC;" d="M161.989,377.463h-3.853c-0.276,0-0.5-0.224-0.5-0.5v-4.576c0-0.276,0.224-0.5,0.5-0.5
									c0.276,0,0.5,0.224,0.5,0.5v4.076h3.353c0.276,0,0.5,0.224,0.5,0.5S162.265,377.463,161.989,377.463z"/>
							</g>
						</g>
						<rect x="169.705" y="376.039" style="fill:#7F96FC;" width="18.569" height="4.761"/>
						<rect x="169.705" y="363.938" style="fill:#7F96FC;" width="44.999" height="4.761"/>
						<rect x="195.589" y="376.039" style="fill:#7F96FC;" width="18.569" height="4.761"/>
					</g>
					<g>
						<g>
							<path style="fill:#324BCC;" d="M236.294,368.892h-5.412c-0.552,0-1-0.447-1-1s0.448-1,1-1h5.412c0.552,0,1,0.447,1,1
								S236.846,368.892,236.294,368.892z"/>
						</g>
						<g>
							<path style="fill:#324BCC;" d="M236.294,373.144h-5.412c-0.552,0-1-0.447-1-1c0-0.553,0.448-1,1-1h5.412c0.552,0,1,0.447,1,1
								C237.294,372.696,236.846,373.144,236.294,373.144z"/>
						</g>
						<g>
							<path style="fill:#324BCC;" d="M236.294,377.397h-5.412c-0.552,0-1-0.447-1-1c0-0.553,0.448-1,1-1h5.412c0.552,0,1,0.447,1,1
								C237.294,376.949,236.846,377.397,236.294,377.397z"/>
						</g>
					</g>
				</g>
			</g>
			<g>
				<rect x="120.606" y="258.654" style="fill:#7F96FC;" width="34.019" height="4.895"/>
			</g>
			<polygon style="opacity:0.42;fill:#738AFF;" points="113.401,126.868 252.921,404.471 252.921,126.868 			"/>
		</g>
		<g>
			<g>
				<path style="fill:#8DB2EB;" d="M75.463,294.526c-0.426-0.485-1.131,0.225-0.707,0.707
					c16.119,18.337,22.351,44.329,16.324,67.985c-0.159,0.625,0.805,0.89,0.964,0.266C98.162,339.469,91.822,313.136,75.463,294.526
					z"/>
				<path style="fill:#8DB2EB;" d="M92.797,331.438c-1.082-20.38,3.327-41.025,12.64-59.185
					C104.084,292.393,99.804,312.508,92.797,331.438z"/>
				<path style="fill:#8DB2EB;" d="M86.893,313.212c-2.043-18.34-15.154-35.001-32.5-41.299
					C59.511,289.226,71.108,304.45,86.893,313.212z"/>
				<path style="fill:#8DB2EB;" d="M93.582,335.872c-7.688-12.339-19.949-21.755-33.853-26
					C68.553,321.168,80.252,330.6,93.582,335.872z"/>
			</g>
			<g>
				<path style="fill:#8DB2EB;" d="M73.58,397.088c-9.749-3.698-17.47-11.33-21.334-21.005c-4.3-10.766-3.253-22.919-2.347-34.201
					c0.052-0.643-0.949-0.638-1,0c-0.94,11.702-1.969,24.323,2.762,35.409c4.096,9.599,11.898,17.061,21.653,20.761
					C73.918,398.282,74.177,397.315,73.58,397.088z"/>
				<path style="fill:#8DB2EB;" d="M48.864,363.554c-5.099-14.451-3.453-31.129,4.372-44.306
					C56.537,334.023,54.648,349.564,48.864,363.554z"/>
				<path style="fill:#8DB2EB;" d="M51.247,373.825c-0.718-7.239,3.091-14.735,9.361-18.424
					C60.792,362.512,57.111,369.799,51.247,373.825z"/>
				<path style="fill:#8DB2EB;" d="M50.984,373.339c-5.198-4.874-12.939-6.869-19.845-5.115c2.024,3.265,4.872,5.916,8.585,6.9
					C43.438,376.107,47.61,375.175,50.984,373.339z"/>
			</g>
			<path style="fill:#7AA1DE;" d="M147.13,422.08H40.51c-0.57-2.37-0.87-4.81-0.88-7.25c-0.02-5.51,1.52-11.17,5.15-15.32
				c3.62-4.14,9.53-6.46,14.84-5c-2.2-3.98-1.07-9.45,2.25-12.55c3.33-3.1,8.8-3.58,12.61-1.12c-7.2-4.96-8.92-16.88-4.3-24.3
				c1-1.61,2.29-3.02,3.76-4.19c5.3-4.22,13.08-5.42,19.3-2.56c7.95,3.65,12.52,13.3,10.58,21.83c6.06-3.6,15.05-1.32,19.39,4.24
				c4.34,5.56,3.81,14.33-1.16,19.33c4.54-2.82,10.81-1.61,15.59,0.78c4.77,2.38,8.28,6.98,9.76,12.12
				C148.71,412.63,148.49,417.54,147.13,422.08z"/>
			<path style="fill:#8DB2EB;" d="M123.82,422.08H40.51c-0.57-2.37-0.87-4.81-0.88-7.25c-0.02-5.51,1.52-11.17,5.15-15.32
				c3.62-4.14,9.53-6.46,14.84-5c-2.2-3.98-1.07-9.45,2.25-12.55c3.33-3.1,8.8-3.58,12.61-1.12c-7.2-4.96-8.92-16.88-4.3-24.3
				c1-1.61,2.29-3.02,3.76-4.19c5.4,4.59,8.15,12.3,6.56,19.27c6.07-3.6,15.06-1.32,19.4,4.24c4.33,5.56,3.81,14.33-1.16,19.33
				c4.53-2.82,10.8-1.61,15.58,0.78c4.78,2.38,8.29,6.98,9.77,12.12C125.4,412.63,125.18,417.54,123.82,422.08z"/>
			<g>
				<path style="fill:#CDE0FF;" d="M94.817,372.165c0,3.011-2.441,7.91-5.452,7.91c-3.011,0-5.453-4.899-5.453-7.91
					c0-3.011,2.441-5.453,5.453-5.453C92.376,366.713,94.817,369.154,94.817,372.165z"/>
				<path style="fill:#CDE0FF;" d="M82.055,373.515c2.864,0.931,6.769,4.766,5.838,7.63c-0.93,2.864-6.344,3.672-9.208,2.741
					c-2.864-0.931-4.431-4.007-3.501-6.871C76.115,374.152,79.191,372.585,82.055,373.515z"/>
				<path style="fill:#CDE0FF;" d="M79.394,386.07c1.77-2.436,6.625-4.965,9.061-3.195c2.436,1.77,1.532,7.168-0.238,9.604
					c-1.77,2.436-5.18,2.976-7.616,1.206C78.164,391.917,77.624,388.507,79.394,386.07z"/>
				<path style="fill:#CDE0FF;" d="M90.513,392.48c-1.77-2.436-2.675-7.834-0.238-9.604c2.436-1.77,7.291,0.758,9.061,3.195
					c1.77,2.436,1.23,5.846-1.206,7.616C95.693,395.457,92.283,394.917,90.513,392.48z"/>
				<path style="fill:#CDE0FF;" d="M100.045,383.887c-2.864,0.931-8.277,0.123-9.208-2.741c-0.93-2.864,2.974-6.699,5.838-7.63
					c2.864-0.931,5.94,0.637,6.871,3.501C104.476,379.88,102.909,382.956,100.045,383.887z"/>
				<path style="fill:#FFFFFF;" d="M94.817,381.624c0,3.011-2.441,5.453-5.452,5.453c-3.011,0-5.453-2.441-5.453-5.453
					c0-3.011,2.441-5.453,5.453-5.453C92.376,376.171,94.817,378.612,94.817,381.624z"/>
			</g>
		</g>
		<g>
			<g>
				<path style="fill:#7AA1DE;" d="M468.61,422.08h-67.22l2-45.03l0.07-1.66c5-4.25,12.6-5.12,18.43-2.12
					c5.83,3,9.53,9.7,8.98,16.24c3.51-1.09,7.61-0.54,10.53,1.71c2.91,2.24,4.65,5.94,4.51,9.61c5.88-1.69,13.55,0.1,17.94,4.37
					C468.25,409.47,470.13,416.15,468.61,422.08z"/>
				<path style="fill:#8DB2EB;" d="M455.5,422.08h-54.11l2-45.03c1.71,0.25,3.37,0.77,4.91,1.57c5.83,3,9.54,9.7,8.98,16.23
					c3.51-1.08,7.61-0.53,10.53,1.71c2.91,2.24,4.65,5.94,4.51,9.62c5.88-1.7,13.55,0.1,17.94,4.37
					C453.37,413.56,455.22,417.78,455.5,422.08z"/>
			</g>
			<g>
				<path style="fill:#8DB2EB;" d="M395.113,339.262c-3.184-13.625,2.307-27.689,8.561-40.206
					c6.254-12.517,13.546-25.156,14.248-39.13c6.18,7.634,5.588,18.357,2.697,27.744c-2.891,9.387-8.598,17.598-13.86,25.891
					C401.498,321.854,396.282,329.51,395.113,339.262z"/>
				<path style="fill:#8DB2EB;" d="M368.418,287.878c-2.707,4.931-2.035,11.161,0.364,16.249s6.316,9.276,10.17,13.374
					c5.26,5.593,10.521,11.186,15.782,16.778c1.475-9.028-4.038-17.678-10.124-24.507
					C378.522,302.944,371.385,296.531,368.418,287.878z"/>
				<path style="fill:#8DB2EB;" d="M429.115,188.328c-15.308,34.003-25.675,70.11-30.813,106.976
					c1.093-37.143-7.345-74.378-24.483-107.424c-0.297-0.573-1.16-0.067-0.864,0.505c19.576,37.747,27.714,80.968,23.25,123.251
					c-0.018,0.17,0.042,0.291,0.137,0.37c-1.307,13.617-1.908,27.308-1.776,41.008c0.006,0.645,1.006,0.645,1,0
					c-0.543-56.42,11.249-112.73,34.412-164.181C430.241,188.25,429.379,187.741,429.115,188.328z"/>
				<path style="fill:#8DB2EB;" d="M448.446,149.045c-2.169,19.412-4.372,38.987-10.475,57.542
					c-6.103,18.555-15.985,38.175-31.726,49.739C403.513,217.189,419.243,175.242,448.446,149.045z"/>
				<path style="fill:#8DB2EB;" d="M362.071,175.5c0,0,35.82,25.046,30.277,64.622C392.348,240.122,359.369,213.102,362.071,175.5z"
					/>
				<polygon style="fill:#A5C5FE;" points="421.67,329.41 413.1,422.08 376.33,422.08 367.77,329.41 				"/>
				<polygon style="fill:#CDE0FF;" points="405.95,329.41 397.38,422.08 376.33,422.08 367.77,329.41 				"/>
			</g>
			<g>
				<path style="fill:#CDE0FF;" d="M437.035,392.162c0,3.011-2.441,7.91-5.453,7.91c-3.011,0-5.453-4.899-5.453-7.91
					c0-3.011,2.441-5.453,5.453-5.453C434.594,386.709,437.035,389.15,437.035,392.162z"/>
				<path style="fill:#CDE0FF;" d="M424.272,393.511c2.864,0.931,6.769,4.766,5.838,7.63c-0.931,2.864-6.344,3.672-9.208,2.741
					c-2.864-0.931-4.431-4.007-3.501-6.871C418.332,394.148,421.408,392.581,424.272,393.511z"/>
				<path style="fill:#CDE0FF;" d="M421.612,406.066c1.77-2.436,6.625-4.965,9.061-3.195c2.436,1.77,1.532,7.168-0.238,9.605
					c-1.77,2.436-5.18,2.976-7.616,1.206C420.382,411.913,419.842,408.503,421.612,406.066z"/>
				<path style="fill:#CDE0FF;" d="M432.731,412.476c-1.77-2.436-2.674-7.835-0.238-9.605c2.436-1.77,7.291,0.758,9.061,3.195
					c1.77,2.436,1.23,5.846-1.206,7.616C437.911,415.453,434.501,414.913,432.731,412.476z"/>
				<path style="fill:#CDE0FF;" d="M442.263,403.883c-2.864,0.931-8.277,0.123-9.208-2.741c-0.931-2.864,2.974-6.7,5.838-7.63
					c2.864-0.931,5.94,0.637,6.871,3.501C446.694,399.876,445.127,402.952,442.263,403.883z"/>
				<path style="fill:#FFFFFF;" d="M437.035,401.62c0,3.011-2.441,5.453-5.453,5.453c-3.011,0-5.453-2.441-5.453-5.453
					c0-3.011,2.441-5.453,5.453-5.453C434.594,396.167,437.035,398.608,437.035,401.62z"/>
			</g>
		</g>
		<g>
			<path style="fill:#F9AEC7;" d="M238.781,156.807c-1.158,0.091-2.274,0.681-2.824,1.704c-0.747,1.392-0.6,3.141,0.025,4.599
				c0.423,0.987,1.039,1.87,1.716,2.709c0.582,0.722,1.772,0.547,2.048-0.339c0.045-0.143,0.078-0.29,0.098-0.442
				c0.242-1.854,0.484-3.708,0.725-5.562C240.734,158.215,241.275,156.611,238.781,156.807z"/>
			<path style="fill:#F9AEC7;" d="M236.199,157.325c-1.158,0.091-2.274,0.681-2.824,1.704c-0.747,1.392-0.6,3.141,0.025,4.599
				c0.423,0.987,1.039,1.87,1.716,2.709c0.582,0.722,1.772,0.547,2.048-0.339c0.045-0.143,0.078-0.29,0.098-0.442
				c0.242-1.854,0.484-3.708,0.725-5.562C238.152,158.733,238.693,157.129,236.199,157.325z"/>
			<path style="fill:#F9C7D8;" d="M254.27,207.28l11.553-8.03l-18.68-28.637l-3.911-11.136c0,0-6.701-11.879-7.701-11.218
				c-1,0.661,4.543,15.245,4.543,15.245l-4.002,0.956c0,0-5.883-2.326-6.313-0.857c-0.43,1.469,5.812,5.642,5.812,5.642
				s0.908,3.602,3.921,4.521L254.27,207.28z"/>
			<path style="fill:#090841;" d="M298.364,113.61c2.741-3.167,6.658-5.094,10.843-5.262c7.897-0.316,20.052,1.61,23.955,15.487
				c5.618,21.48,15.714,83.444,15.714,83.444s-37.854,8.43-64.621,0c0,0,1.439-51.536,10.87-87.507
				C295.72,117.497,296.824,115.39,298.364,113.61L298.364,113.61z"/>
			<path style="fill:#B5164E;" d="M264.737,197.563c0,0,11.608-16.757,23.333-29.438c11.725-12.68,19.122-9.625,19.122-9.625
				l0.909,17.441l-34.786,37.913c-4.181,4.556-11.422,4.21-15.227-0.664c-3.09-3.96-4.321-6.85-6.687-12.733
				c2.308-3.457,6.714-6.378,10.68-6.914L264.737,197.563z"/>
			<g>
				<path style="fill:#F9AEC7;" d="M359.204,377.478c0.755,0.209,1.531,0.525,2.321,0.926c2.256,1.173,4.501,3.059,5.925,5.097
					c0.484,0.703,0.401,1.657-0.169,2.29c-4.149,4.636-20.921,23.046-23.018,20.071c-1.27-1.796,0.674-7.866,2.784-13.172
					c1.858-4.692,3.84-8.789,3.84-8.789l-47.696-39.757c-3.018-2.515-5.294-5.804-6.584-9.515l-10.953-31.487l29.988-8.642V330
					C315.64,330,339.262,346.795,359.204,377.478z"/>
				<path style="fill:#090841;" d="M367.45,383.5c0.484,0.703,0.401,1.657-0.169,2.29c-4.149,4.636-20.921,23.046-23.018,20.071
					c-1.27-1.796,0.674-7.866,2.784-13.172c2.068,0.641,3.478,2.622,3.478,2.622c0.943-0.426,7.016-6.43,9.459-10.729
					c1.307-2.305,1.568-4.573,1.542-6.178C363.781,379.576,366.026,381.462,367.45,383.5z"/>
			</g>
			<g>
				<path style="fill:#F9C7D8;" d="M340.73,409.95c0.39,0.68,0.72,1.45,1,2.29c0.78,2.42,1.05,5.34,0.63,7.79
					c-0.15,0.84-0.88,1.46-1.73,1.51c-6.21,0.38-31.08,1.68-30.48-1.91c0.36-2.17,6.01-5.12,11.24-7.41
					c4.62-2.03,8.91-3.55,8.91-3.55l-14.66-103.34H345l-5.33,36.34C339.67,341.67,348.12,374.11,340.73,409.95z"/>
				<path style="fill:#090841;" d="M342.36,420.03c-0.15,0.84-0.88,1.46-1.73,1.51c-6.21,0.38-31.08,1.68-30.48-1.91
					c0.36-2.17,6.01-5.12,11.24-7.41c1.02,1.91,0.63,4.31,0.63,4.31c0.97,0.36,9.51,0.36,14.27-0.98c2.55-0.72,4.33-2.15,5.44-3.31
					C342.51,414.66,342.78,417.58,342.36,420.03z"/>
			</g>
			<path style="fill:#F9C7D8;" d="M364.364,221.439l10.15,39.463c0,0,6.336,5.202,5.336,6.202s-4.75-2.25-4.75-2.25
				s2.25,5,1.25,5.75s-3.823-4.32-3.823-4.32s1.193,5.993,0,6.115c-1.193,0.122-2.048-5.463-2.048-5.463s-0.124,6.197-1.469,6.197
				c-1.345,0-0.977-6.075-0.977-6.075s-1.957,4.525-3.18,3.791c-1.223-0.734,1.59-6.849,1.59-6.849l-14.921-36.812L364.364,221.439z
				"/>
			<path style="fill:#D41E5E;" d="M353.67,316.33c0,0-46.67,13.67-77.92-10.08l24.5-106.75c0,0-9.5-5.25-7-16.75
				S302,158.5,302,158.5l14.5-2l3.46,0.7l17.54,3.8l4,57.5c0,0,11,16.75,13.25,38.75S353.67,316.33,353.67,316.33z"/>
			<path style="fill:#D41E5E;" d="M330.5,177l7-16c0,0,8-0.25,14.5,15.75s15.25,49.75,15.25,49.75s-3.5,4.75-14.25,6.5L330.5,177z"
				/>
			<path style="fill:#F9C7D8;" d="M315.76,164.07c-3.29,1.17-6.63,0.23-7.47-2.1c-0.63-1.78,0.36-3.84,2.3-5.25v-15.7l9.37-1.87
				v18.05c0.09,0.16,0.17,0.33,0.23,0.51C321.03,160.04,319.04,162.89,315.76,164.07z"/>
			<path style="fill:#F9AEC7;" d="M319.96,139.15v12.4c-4.33,2.81-8.81,3.06-8.81,3.06c-0.19-0.11-0.38-0.23-0.56-0.36v-13.23
				L319.96,139.15z"/>
			<path style="fill:#F9C7D8;" d="M300.948,118.644c0,0-1.311,5.15-4.775,5.524c0,0-1.685,17.416,10.393,24.626
				c0,0,15.169-0.843,16.667-16.948c0,0-0.936-1.779-8.521-4.307C307.127,125.011,302.539,122.577,300.948,118.644z"/>
			<path style="fill:#B5164E;" d="M353.67,316.33c0,0-46.67,13.67-77.92-10.08l24.5-106.75c0,0,6.77,5.3,13.99-3.49
				c0,0-1.28,12.57-11.83,11.27l-16.76,90.02C285.65,297.3,298.47,322.4,353.67,316.33z"/>
			<path style="fill:#B5164E;" d="M338.759,162.027c-2.526,10.344-2.524,21.295,0.007,31.638
				C333.663,183.597,333.148,171.821,338.759,162.027z"/>
			<path style="fill:#B5164E;" d="M314.24,196.01c0,0-3.328,10.202,18.427,6.675c0,0-10.833,11.148-24.566,0
				C310.927,201.59,312.784,199.091,314.24,196.01z"/>
		</g>
	</g>
</g>
</svg>
