<svg width="16" height="14" viewBox="0 0 16 14" fill="none" xmlns="http://www.w3.org/2000/svg">
<path d="M8.00332 10.3598C6.18928 10.3598 4.7168 8.85424 4.7168 6.99947C4.7168 5.1447 6.18928 3.63916 8.00332 3.63916C9.81737 3.63916 11.2899 5.1447 11.2899 6.99947C11.2899 8.85424 9.81737 10.3598 8.00332 10.3598ZM8.00332 4.80324C6.81926 4.80324 5.85532 5.78883 5.85532 6.99947C5.85532 8.21011 6.81926 9.1957 8.00332 9.1957C9.18739 9.1957 10.1513 8.21011 10.1513 6.99947C10.1513 5.78883 9.18739 4.80324 8.00332 4.80324Z" fill="black"/>
<path d="M8.0038 14C5.14991 14 2.45541 12.2927 0.603416 9.32816C-0.201138 8.04767 -0.201138 5.96009 0.603416 4.67184C2.463 1.70732 5.1575 0 8.0038 0C10.8501 0 13.5446 1.70732 15.3966 4.67184C16.2011 5.95233 16.2011 8.03991 15.3966 9.32816C13.5446 12.2927 10.8501 14 8.0038 14ZM8.0038 1.16408C5.55218 1.16408 3.20683 2.66962 1.56736 5.30044C0.998103 6.20843 0.998103 7.79157 1.56736 8.69956C3.20683 11.3304 5.55218 12.8359 8.0038 12.8359C10.4554 12.8359 12.8008 11.3304 14.4402 8.69956C15.0095 7.79157 15.0095 6.20843 14.4402 5.30044C12.8008 2.66962 10.4554 1.16408 8.0038 1.16408Z" fill="black"/>
</svg>
